<svg width="66" height="39" viewBox="0 0 66 39" fill="none" xmlns="http://www.w3.org/2000/svg">
<path d="M31.68 4.86975V39H57.96C63.51 38.4543 66 33.6685 66 27.7912C66 21.578 62.64 16.5823 58.14 16.5823C57 16.5823 56.04 16.9182 55.05 17.5059C54.33 7.68245 48.36 0 41.01 0C37.5 0 34.17 1.84715 31.68 4.86975ZM29.04 9.15178C28.14 8.39613 27.18 7.8084 26.13 7.51453V39H30.3V6.84284C29.85 7.51453 29.43 8.35415 29.04 9.15178ZM21.99 6.88482V39H24.75V7.01076C24.18 6.88482 23.61 6.84284 23.01 6.84284C22.65 6.84284 22.32 6.84284 21.99 6.88482ZM16.5 9.61356V39H19.23V7.68245C18.24 8.14424 17.31 8.81593 16.5 9.61356ZM11.49 20.1087C11.31 20.1087 11.13 19.8568 10.92 19.7309V39H13.68V13.2239C12.57 15.239 11.82 17.6319 11.49 20.1087ZM5.37 18.9333V38.6222C6 38.8741 6.72 39 7.5 39H8.16V18.5974C7.92 18.5554 7.68 18.5135 7.5 18.5135C6.72 18.5135 6 18.6814 5.37 18.9333ZM0 28.7567C0 31.9053 1.02 34.676 2.61 36.5651V20.9903C1.02 22.8375 0 25.6502 0 28.7567Z" fill="#99ABA6"/>
</svg>
